<svg xmlns="http://www.w3.org/2000/svg" width="63" height="63" viewBox="0 0 63 63">
  <g id="Group_269" data-name="Group 269" transform="translate(-109.75 -649.407)">
    <g id="Group_266" data-name="Group 266" transform="translate(109.75 649.073)">
      <rect id="Rectangle_88" data-name="Rectangle 88" width="63" height="63" transform="translate(0 0.334)" fill="#191919"/>
    </g>
    <g id="Group_240" data-name="Group 240" transform="translate(-106 318)">
      <path id="Path_353" data-name="Path 353" d="M254.73,362.927h-4.88v17.48h-7.28v-17.48h-3.44v-6.16h3.44v-4a8.657,8.657,0,0,1,.56-3.16,6.14,6.14,0,0,1,2.2-2.92,7.681,7.681,0,0,1,4.56-1.28l5.4.04v6h-3.92a1.551,1.551,0,0,0-1,.32,1.684,1.684,0,0,0-.52,1.36v3.64h5.52Z" fill="#fff"/>
    </g>
  </g>
</svg>
