<svg xmlns="http://www.w3.org/2000/svg" width="63" height="63" viewBox="0 0 63 63">
  <g id="Group_271" data-name="Group 271" transform="translate(-276.249 -649.073)">
    <g id="Group_268" data-name="Group 268" transform="translate(109.75 649.073)">
      <rect id="Rectangle_89" data-name="Rectangle 89" width="63" height="63" transform="translate(166.499)" fill="#191919"/>
    </g>
    <path id="iconmonstr-github-1" d="M19.567,0A19.326,19.326,0,0,0,0,19.072a19.127,19.127,0,0,0,13.382,18.1c.977.176,1.293-.415,1.293-.917V32.7C9.232,33.855,8.1,30.451,8.1,30.451A5.089,5.089,0,0,0,5.926,27.66c-1.776-1.184.135-1.159.135-1.159a4.1,4.1,0,0,1,3,1.966,4.227,4.227,0,0,0,5.694,1.585A4.009,4.009,0,0,1,16,27.5c-4.346-.485-8.914-2.12-8.914-9.426A7.279,7.279,0,0,1,9.1,12.958,6.7,6.7,0,0,1,9.288,7.91S10.932,7.4,14.67,9.865a19.012,19.012,0,0,1,9.8,0C28.2,7.4,29.845,7.91,29.845,7.91a6.693,6.693,0,0,1,.192,5.048,7.259,7.259,0,0,1,2.014,5.119c0,7.325-4.577,8.938-8.934,9.41a4.5,4.5,0,0,1,1.342,3.531v5.234c0,.507.313,1.1,1.306.915a19.127,19.127,0,0,0,13.369-18.1A19.325,19.325,0,0,0,19.567,0Z" transform="translate(288 662)" fill="#fff"/>
  </g>
</svg>
