<svg xmlns="http://www.w3.org/2000/svg" width="63" height="63" viewBox="0 0 63 63">
  <g id="Group_270" data-name="Group 270" transform="translate(-193.249 -649.073)">
    <g id="Group_267" data-name="Group 267" transform="translate(109.75 649.073)">
      <rect id="Rectangle_66" data-name="Rectangle 66" width="63" height="63" transform="translate(83.499)" fill="#191919"/>
    </g>
    <g id="Group_262" data-name="Group 262" transform="translate(121 30)">
      <path id="Path_375" data-name="Path 375" d="M118.549,633.073a2.542,2.542,0,0,1,1.84.739,2.4,2.4,0,0,1,.76,1.78v30a2.331,2.331,0,0,1-.76,1.76,2.531,2.531,0,0,1-1.8.721H88.909a2.524,2.524,0,0,1-1.8-.721,2.328,2.328,0,0,1-.76-1.76v-30a2.4,2.4,0,0,1,.76-1.78,2.54,2.54,0,0,1,1.84-.739h29.6Zm-22.12,10.579a2.8,2.8,0,0,0,0-3.92,2.907,2.907,0,0,0-2.12-.779,2.98,2.98,0,0,0-2.14.779,2.593,2.593,0,0,0-.82,1.96,2.621,2.621,0,0,0,.8,1.96,2.849,2.849,0,0,0,2.08.78h.04A2.954,2.954,0,0,0,96.429,643.652Zm.48,2.941h-5.24v15.8h5.24Zm18.92,6.72a7.663,7.663,0,0,0-1.72-5.359,6.213,6.213,0,0,0-7.48-.841,6.2,6.2,0,0,0-1.56,1.721v-2.24h-5.24q.039.919,0,8.44v7.359h5.24v-8.84a3.928,3.928,0,0,1,.16-1.28,3.186,3.186,0,0,1,.96-1.319,2.657,2.657,0,0,1,1.76-.6,2.306,2.306,0,0,1,2.04,1,4.665,4.665,0,0,1,.6,2.561v8.479h5.24Z" fill="#fff"/>
    </g>
  </g>
</svg>
